<svg xmlns="http://www.w3.org/2000/svg" width="58px" height="73px" viewBox="0 0 58 73"><path fill="#000827" fill-rule="evenodd" d="M0 50.4c4.2 9 18.5 15.2 18.5 22.6H0ZM57.4 49l.6 1.4V73H39.1c0-8.3 13.1-12.6 18.1-23.5ZM38.3 0c0 5.4 5.2 10.3 10.3 15.2l.7.7c3.9 3.6 7.5 7.3 8.7 11.1v17c-3.4 16-19.7 19.2-19.7 29H19.8c0-9.7-16.2-12.9-19.7-28.5L0 44V27c.6-3.8 4-7.4 7.7-10.9l.6-.6 1.4-1.2.7-.7.7-.5c4.5-4.2 8.7-8.4 8.7-13V0h18.5ZM29 8C25.6 24 9.3 27.2 9.3 37c0 5.4 5.2 10.3 10.3 15.1l.7.7c3.9 3.7 7.5 7.3 8.7 11.2.6-4.2 4.7-8.1 8.9-12l.8-.7.7-.7.8-.7c4.5-4.1 8.6-8.3 8.6-13C48.8 27.3 32.3 24 29 8Zm-.6 5c3.2 9.7 19.1 16.3 19.1 24 0 7.7-16.5 16.5-19 24-1.2-2.9-4.8-6.3-8.6-9.8l-.7-.7c-4.6-4.4-9-9-9-13.5 0-8.4 13.4-12.7 18.2-24ZM58 0v22.8a9 9 0 0 0-.6 1.3C54.8 17.3 39.1 8.4 39.1 0H58ZM18.5 0C18.5 7.3 3.8 15.6 0 22.8V0h18.5Z"/></svg>