<?xml version="1.0" encoding="utf-8"?>
<!-- Generator: Adobe Illustrator 27.8.0, SVG Export Plug-In . SVG Version: 6.00 Build 0)  -->
<svg version="1.1" id="Layer_1" xmlns="http://www.w3.org/2000/svg" xmlns:xlink="http://www.w3.org/1999/xlink" x="0px" y="0px"
	 viewBox="0 0 31.5 31.5" style="enable-background:new 0 0 31.5 31.5;" xml:space="preserve">
<style type="text/css">
	.st0{fill:#FFFFFF;}
</style>
<path id="Icon_awesome-linkedin" class="st0" d="M29.2,0h-27C1,0,0,1,0,2.3v27c0,1.2,1,2.3,2.2,2.3h27c1.2,0,2.3-1,2.2-2.3v-27
	C31.5,1,30.5,0,29.2,0z M9.5,27H4.9V12h4.7L9.5,27L9.5,27z M7.2,9.9c-1.5,0-2.7-1.2-2.7-2.7s1.2-2.7,2.7-2.7s2.7,1.2,2.7,2.7l0,0
	C9.9,8.7,8.7,9.9,7.2,9.9z M27,27h-4.7v-7.3c0-1.7,0-4-2.4-4c-2.4,0-2.8,1.9-2.8,3.9V27h-4.7V12h4.5V14H17c0.9-1.6,2.6-2.5,4.4-2.4
	c4.7,0,5.6,3.1,5.6,7.2L27,27z"/>
</svg>
