<?xml version="1.0" encoding="UTF-8"?>
<svg width="99px" height="101px" viewBox="0 0 99 101" version="1.1" xmlns="http://www.w3.org/2000/svg" xmlns:xlink="http://www.w3.org/1999/xlink">
    <g stroke="none" stroke-width="1" fill="none" fill-rule="evenodd">
        <g id="Artboard" transform="translate(-2604, -522)" fill="#000827">
            <g id="Group-4-Copy" transform="translate(2604, 522)">
                <path d="M73.5896086,95.6853799 L73.5890567,100.998076 C73.3849598,100.99856 73.1783115,100.998952 72.9691118,100.999253 L71.0174277,100.999503 L70.3362498,100.998493 C72.5045144,98.9433555 73.5896086,97.1715089 73.5896086,95.6853799 Z M69.2981472,66.7840197 L73.5890567,71.0570186 L73.5890567,93.0048118 C73.5890567,95.2833269 72.6827503,97.4682698 71.069995,99.0778198 L69.1455411,100.998449 L60.2257895,100.998449 L66.3958967,94.8442853 C68.2587945,92.9862013 69.3054079,90.4629757 69.3046011,87.8318422 L69.2981472,66.7840197 Z M64.3482412,61.8492399 L68.6391506,66.1222424 L68.6391506,88.0701146 C68.6391506,90.3485957 67.7328711,92.5335091 66.1201582,94.1430535 L59.2512236,100.998493 L50.3267288,100.998493 L61.4455989,89.9095932 C63.3087362,88.0514779 64.3555018,85.5280847 64.354695,82.8967595 L64.3482412,61.8492399 Z M59.3983351,56.9144601 L63.6892445,61.1874627 L63.6892445,83.1356219 C63.6892445,85.4139333 62.7830997,87.5986982 61.1705988,89.2082148 L49.3584598,100.998493 L40.4305863,100.998493 L56.4960403,84.9747546 C58.3589651,83.116667 59.4055958,80.5934225 59.404789,77.9622673 L59.3983351,56.9144601 Z M54.448429,51.9796804 L58.7393385,56.2526829 L58.7393385,78.2006048 C58.7393385,80.4790565 57.8330823,82.6639441 56.2204061,84.2734838 L39.4628046,100.998493 L30.5308392,100.998493 L51.5458098,80.0400298 C53.408933,78.1819163 54.4556897,75.658533 54.4548828,73.027219 L54.448429,51.9796804 Z M49.498523,45.0709887 C49.498523,46.7779725 50.9288261,48.8603046 53.7894324,51.3179851 L53.7894324,73.2658838 C53.7894324,75.5443365 52.8831755,77.7292249 51.2704982,79.3387647 L29.5685917,100.998449 L20.6361202,100.997887 L46.5973452,75.1012585 C48.4597098,73.2429675 49.5058081,70.7198065 49.5046556,68.0889044 L49.5040506,66.4632954 L49.5032563,64.2735697 L49.5030407,63.6663895 L49.5022284,61.3196943 L49.5020379,60.7535269 L49.5011605,58.0457281 L49.5010797,57.7862267 L49.5001431,54.599317 L49.5000798,54.3685245 L49.4991964,50.7588008 L49.4991163,50.3730895 L49.498523,45.0709887 Z M0.0018786924,86.5703502 L1.76908716,88.332756 C3.38320189,89.9424841 4.29037176,92.1283785 4.29037176,94.4079817 L4.29037176,100.998493 L0.00054381292,100.998493 L0.000453259053,95.5066363 L0.0018786924,86.5703502 Z M0.0018786924,76.7068882 C2.85844522,79.5556939 5.09706769,81.7879307 6.7190546,83.4022866 C8.33225509,85.0111923 9.23929217,87.1956637 9.24016992,89.4740387 L9.23982342,100.998493 L4.94990607,100.998493 L4.95018158,94.6767154 C4.95029611,92.0486594 3.90546079,89.5284 2.04591904,87.6713102 L0.0018786924,85.629965 L0.00101299095,81.5852483 L0.000993452545,81.3879998 L0.000993452545,79.2464614 L0.00101299095,79.0867868 L0.0018786924,76.7068882 Z M0.0018786924,66.8272222 C5.16113628,71.972463 9.0502558,75.8511376 11.6704158,78.462065 C13.2824474,80.0705613 14.188905,82.2539293 14.1901021,84.5311875 L14.1897295,100.998493 L9.89981213,100.998493 L9.90014477,89.7512539 C9.89982032,87.1222648 8.85382394,84.6013641 6.99280659,82.7444316 L6.74742087,82.499573 C6.16458762,81.9180994 5.51030304,81.2652528 4.78456712,80.5410331 L4.14500947,79.9027943 C3.47578584,79.2349335 2.75210509,78.5126752 1.97396723,77.7360195 L1.01406237,76.7779219 C0.685380952,76.4498525 0.347986391,76.1130794 0.0018786924,75.7676028 L0.0018786924,66.8272222 Z M0.0018786924,56.9616224 C5.33252604,62.2777872 10.8703014,67.7992662 16.6179414,73.5233145 C18.2322129,75.1327755 19.1396657,77.318459 19.1400251,79.5979846 L19.1396356,100.998493 L14.8497182,100.998493 L14.8500799,84.8002384 C14.8488986,82.1744794 13.8046412,79.6567438 11.9460532,77.8019489 C11.4691161,77.3256982 10.9610743,76.8184147 10.4219278,76.2800985 L9.76002173,75.6192234 C9.19599148,75.0560811 8.60085655,74.4619061 7.97461693,73.8366984 L7.20819913,73.0715534 C5.12460433,70.9914449 2.72249752,68.5935616 0.0018786924,65.8779033 L0.00100326621,64.0027876 L0.000938651419,63.8086693 L0.000938651419,58.3403941 L0.00100326621,58.1937355 L0.0018786924,56.9616224 Z M94.0582379,91.7327325 L96.0003791,93.6596603 C97.499158,95.1466987 98.3421572,97.1706152 98.3421572,99.2819232 L98.3421572,100.998493 L94.0582379,100.998493 L94.0582379,91.7327325 Z M84.1584258,81.863173 L88.442345,86.1135349 L88.442345,100.998493 L84.1584258,100.998493 L84.1584258,81.863173 Z M79.2085197,76.9283932 L83.492439,81.1787551 L83.492439,100.998493 L79.2085197,100.998493 L79.2085197,76.9283932 Z M74.2586137,71.9936134 L78.5425329,76.2439753 L78.5425329,100.998493 L74.2586137,100.998076 L74.2586137,71.9936134 Z M89.1083319,86.7979527 L93.3922511,91.0483147 L93.3922511,100.997928 L89.1083319,100.997928 L89.1083319,86.7979527 Z M0.0018786924,47.0696845 C4.78095124,51.8357692 11.9719909,59.0117407 21.574438,68.5981589 C23.184651,70.2070275 24.0895637,72.3898046 24.0899959,74.6660392 L24.089996,96.6078808 L19.8000787,100.882069 L19.8000787,79.8726162 C19.8000733,77.2462615 18.7564717,74.7275376 16.9001414,72.8696411 C10.8553352,66.8293901 5.22258096,61.2036751 0.0018786924,55.9924961 L0.0018786924,47.0696845 Z M53.7899701,16.3999181 L53.7835179,37.442107 C53.7827101,40.0765709 54.8319684,42.6027079 56.699029,44.4613325 L98.9991721,86.5703502 L98.9991721,99.7558865 C98.9998632,96.698971 97.8773505,94.1897035 95.6316339,92.2280839 L52.0176256,48.6936338 C50.4051741,47.0841237 49.4990607,44.8993934 49.4990607,42.6211215 L49.4990607,20.672917 L53.7899701,16.3999181 Z M29.0434723,41.0689934 L29.0434723,91.6502827 L24.759553,95.9211108 L24.759553,48.6181841 C24.759553,46.5068761 25.6025522,44.4829597 27.1013311,42.9959212 L29.0434723,41.0689934 Z M33.9933783,36.1342137 L33.9933783,86.7155029 L29.7094591,90.986331 L29.7094591,40.3845756 L33.9933783,36.1342137 Z M38.9432844,31.1994339 L38.9432844,81.7807231 L34.6593651,86.0515513 L34.6593651,35.4497958 L38.9432844,31.1994339 Z M58.7398762,11.4651384 L58.733424,32.5072724 C58.7326162,35.1417813 59.7819102,37.6679577 61.6490271,39.5265895 L98.9990607,76.7068882 L98.9990607,85.629965 L56.9732595,43.75985 C55.3573053,42.1498821 54.4489667,39.962701 54.4489667,37.6816257 L54.4489667,15.7381409 L58.7398762,11.4651384 Z M43.8931905,26.2646541 L43.8931905,76.8459434 L39.6092712,81.1167715 L39.6092712,30.515016 L43.8931905,26.2646541 Z M48.8430965,21.3298743 L48.8430965,68.6234903 C48.8430965,70.728205 48.0053394,72.7463606 46.5148057,74.2323394 L44.5591773,76.1819917 L44.5591773,25.5802362 L48.8430965,21.3298743 Z M63.6897822,6.53035858 L63.6833305,27.5709722 C63.6825224,30.2063797 64.7325307,32.7333415 66.6007713,34.5921182 L99,66.8272222 L99,75.7676028 L61.9229306,38.8250305 C60.30712,37.2150814 59.3988728,35.0280007 59.3988728,32.7470404 L59.3988728,10.8033611 L63.6897822,6.53035858 Z M69.1455411,9.09494702e-13 L26.9960036,42.0727113 C25.1353167,43.9298789 24.0897076,46.4508586 24.089731,49.0797799 L24.0899977,57.6027419 L24.0900025,57.8774701 L24.0900039,64.9546892 L24.0899992,65.1680451 L24.0894522,72.6517138 C24.0894522,70.5253225 22.6595096,68.246341 19.7996243,65.8147693 L19.7996243,43.8759152 C19.7996243,41.5962656 20.7068309,39.4103307 22.3210036,37.800595 L60.2257895,9.09494702e-13 L69.1455411,9.09494702e-13 Z M68.6396883,1.5955788 L68.6332367,22.6357516 C68.6324286,25.2714197 69.6826439,27.7986091 71.5512103,29.6574277 L98.998591,56.9616224 L99,65.8779033 L66.8748594,33.8905917 C65.2578121,32.2804821 64.3487788,30.0925367 64.3487788,27.8105868 L64.3487788,5.86858132 L68.6396883,1.5955788 Z M59.2512236,9.09494702e-13 L22.0455531,37.1390619 C20.1851049,38.9961793 19.1396356,41.5169711 19.1396356,44.1456881 L19.1396356,65.1542631 L14.8497182,60.8800715 L14.8497182,38.9411378 C14.8497182,36.6615231 15.7568971,34.4756188 17.3710261,32.8658888 L50.3267288,9.09494702e-13 L59.2512236,9.09494702e-13 Z M49.3584598,0 C48.541159,0.815810659 47.6649284,1.69044523 46.7297682,2.62390372 L46.0173487,3.33502706 C45.8967706,3.45538587 45.7752717,3.5766638 45.652852,3.69886085 L44.9072846,4.44307264 C38.2238369,11.1143706 28.9539291,20.3674869 17.0975613,32.2024214 C15.235759,34.0566669 14.1904491,36.5762364 14.1897299,39.2038825 L14.1897295,60.2194833 L9.89981213,55.9452917 L9.89981213,34.0065251 C9.89981213,31.7268116 10.8070695,29.540821 12.4213219,27.9310748 L40.4305863,0 L49.3584598,0 Z M73.5895944,0 L73.5833375,17.69689 C73.5824048,20.3350082 74.6344501,22.8643878 76.5059942,24.7236864 L98.999165,47.0696845 L99,55.9924961 L71.8270301,28.9562529 C70.2085982,27.3459644 69.2986849,25.1570512 69.2986849,22.8739939 L69.2986849,0.933883527 C69.7715188,0.519249003 70.1173738,0.207954494 70.3362498,0 L73.5895944,0 Z M39.4628046,9.05941988e-13 L12.1455849,27.2695289 C10.2852322,29.1266338 9.23982342,31.6473588 9.23982342,34.2759993 L9.23982342,55.2847035 L4.94990607,51.010512 L4.94990607,29.0716228 C4.94990607,26.7919818 5.85710588,24.6060544 7.47126774,22.9963202 L30.5308392,9.05941988e-13 L39.4628046,9.05941988e-13 Z M29.5685917,9.05941988e-13 L7.19555182,22.3347909 C5.33527677,24.1918856 4.28991735,26.7125561 4.28991735,29.3411345 L4.28991735,50.3499238 L0,46.0757358 L0,24.1372955 C-2.79206526e-16,21.8574012 0.907400886,19.6712524 2.52187926,18.0614768 L20.6361202,9.05941988e-13 L29.5685917,9.05941988e-13 Z M98.3421572,0 L98.3421572,45.5863571 L94.0582379,41.3155289 L94.0582379,0 L98.3421572,0 Z M93.3922511,0 L93.3922511,40.6515773 L89.1083319,36.3807492 L89.1083319,0 L93.3922511,0 Z M88.442345,0 L88.442345,35.7167975 L84.1584258,31.4459694 L84.1584258,0 L88.442345,0 Z M83.492439,0 L83.492439,30.7820177 L79.2085197,26.5111896 L79.2085197,0 L83.492439,0 Z M78.5425329,0 L78.5425329,25.8472379 L76.5869045,23.8975857 C75.0963708,22.4116068 74.2586137,20.3934512 74.2586137,18.2887365 L74.2586137,0 L78.5425329,0 Z M4.29037176,9.07718345e-13 L4.29037176,15.1510302 C1.43048646,17.5826019 0.000543812925,19.8615834 0.000543812924,21.9879747 L0.000453171061,9.07718345e-13 L4.29037176,9.07718345e-13 Z M9.24027783,9.07718345e-13 L9.24027783,10.2163324 L4.95035924,14.490524 L4.95035924,0.000887494297 L9.24027783,9.07718345e-13 Z M14.1901839,9.07718345e-13 L14.1901839,5.28155266 L9.9002653,9.55574425 L9.9002653,9.07718345e-13 L14.1901839,9.07718345e-13 Z M19.1396356,9.07718345e-13 L19.14009,0.346772875 L14.8501714,4.62096447 L14.8501714,9.07718345e-13 L19.1396356,9.07718345e-13 Z" id="Combined-Shape"></path>
            </g>
        </g>
    </g>
</svg>