<svg width="107" height="9" viewBox="0 0 107 9" fill="none" xmlns="http://www.w3.org/2000/svg">
<g clip-path="url(#clip0_9286_6392)">
<path d="M-2 5.99994L2.35545 2.80599C3.80185 1.7453 5.77749 1.77712 7.18898 2.88384L11.3171 6.12061C12.7331 7.23088 14.7162 7.25898 16.1631 6.18926L20.7168 2.82274C22.1637 1.75303 24.1468 1.78112 25.5628 2.89139L29.6143 6.06812C31.0616 7.20287 33.0961 7.20458 34.5452 6.07227L38.5697 2.92768C40.0189 1.79537 42.0534 1.79708 43.5006 2.93182L47.5677 6.12076C48.9837 7.23099 50.9667 7.25912 52.4136 6.18951L56.9704 2.82098C58.4163 1.75211 60.3977 1.77939 61.8136 2.88767L65.8796 6.07023C67.3278 7.20377 69.3623 7.20377 70.8105 6.07023L74.8073 2.94184C76.2555 1.8083 78.2901 1.80829 79.7383 2.94184L83.8043 6.12439C85.2202 7.23267 87.2016 7.25996 88.6475 6.19109L92.8483 3.08567C94.4557 1.89745 96.6935 2.07818 98.0893 3.50897L99.9927 5.46005C101.407 6.90929 103.68 7.07357 105.288 5.84263L109 3" stroke="white" stroke-width="3" stroke-linecap="round"/>
</g>
<defs>
<clipPath id="clip0_9286_6392">
<rect width="107" height="9" fill="white"/>
</clipPath>
</defs>
</svg>
